# xmcd
# 
# Track frame offsets:
#     150
#     17890
#     33157
#     44184
#     61703
#     84982
#     100694
#     125309
#     146898
#     170001
#     190816
#     208528
#     226225
#     241100
#     261420
#     266375
#     290011
# 
# Disc length: 4109
# 
# Revision: 2
# Processed by: cddbd v1.5.2PL0 Copyright (c) Steve Scherf et al.
# Submitted via: fre:ac v1.0.17
# 
DISCID=ef100b11
DTITLE=Various Artist - クレヨンしんちゃん TV・映画主題歌集だゾ Disc2
DYEAR=2009
DGENRE=Anime
TTITLE0=シェキドル/全体的に大好きです。
TTITLE1=矢島晶子／ならはしみき/ママとのお約束条項の歌
TTITLE2=やなわらばー/ありの歌
TTITLE3=杉本幸子/たすけてケスタ
TTITLE4=雛形あきこ/SIX COLORS BOYS
TTITLE5=財津和夫/ひまわりの家
TTITLE6=SHAZNA/PURENESS
TTITLE7=こばやしさちこ／音羽ゆりかご会/さよならありがとう
TTITLE8=こばやしさちこ/元気でいてね
TTITLE9=ダンス★マン/二中のファンタジー～体育を休む女の子編～
TTITLE10=のはら家オールスターズ/こんな時こそ焼肉がある
TTITLE11=NO PLAN/○あげよう
TTITLE12=AI/Crayon Beats
TTITLE13=倖田來未/GO WAY!!
TTITLE14=矢島晶子／クレヨンフレンズ from AKB48/ユルユルで DE-O！
TTITLE15=SEAMO/Cry Baby（野原MIX）
TTITLE16=DJ OZMA/人気者で行こう！
EXTD=YEAR: 2009
EXTT0=
EXTT1=
EXTT2=
EXTT3=
EXTT4=
EXTT5=
EXTT6=
EXTT7=
EXTT8=
EXTT9=
EXTT10=
EXTT11=
EXTT12=
EXTT13=
EXTT14=
EXTT15=
EXTT16=
PLAYORDER=
